HIERARCHY
ROOT Hips
{
	OFFSET 0.00000 0.00000 0.00000
	CHANNELS 6 Xposition Yposition Zposition Zrotation Yrotation Xrotation 
	JOINT LHipJoint
	{
		OFFSET 0 0 0
		CHANNELS 3 Zrotation Yrotation Xrotation
		JOINT LeftUpLeg
		{
			OFFSET 1.64577 -1.42384 0.94276
			CHANNELS 3 Zrotation Yrotation Xrotation
			JOINT LeftLeg
			{
				OFFSET 2.11538 -5.81197 0.00000
				CHANNELS 3 Zrotation Yrotation Xrotation
				JOINT LeftFoot
				{
					OFFSET 2.36541 -6.49893 0.00000
					CHANNELS 3 Zrotation Yrotation Xrotation
					JOINT LeftToeBase
					{
						OFFSET 0.17759 -0.48793 1.73865
						CHANNELS 3 Zrotation Yrotation Xrotation
						End Site
						{
							OFFSET 0.00000 -0.00000 0.91205
						}
					}
				}
			}
		}
	}
	JOINT RHipJoint
	{
		OFFSET 0 0 0
		CHANNELS 3 Zrotation Yrotation Xrotation
		JOINT RightUpLeg
		{
			OFFSET -1.43750 -1.42384 0.94276
			CHANNELS 3 Zrotation Yrotation Xrotation
			JOINT RightLeg
			{
				OFFSET -2.10480 -5.78291 0.00000
				CHANNELS 3 Zrotation Yrotation Xrotation
				JOINT RightFoot
				{
					OFFSET -2.34880 -6.45329 0.00000
					CHANNELS 3 Zrotation Yrotation Xrotation
					JOINT RightToeBase
					{
						OFFSET -0.22842 -0.62757 1.80469
						CHANNELS 3 Zrotation Yrotation Xrotation
						End Site
						{
							OFFSET -0.00000 -0.00000 0.95886
						}
					}
				}
			}
		}
	}
	JOINT LowerBack
	{
		OFFSET 0 0 0
		CHANNELS 3 Zrotation Yrotation Xrotation
		JOINT Spine
		{
			OFFSET 0.06217 1.93758 -0.49272
			CHANNELS 3 Zrotation Yrotation Xrotation
			JOINT Spine1
			{
				OFFSET -0.03114 2.03621 -0.05830
				CHANNELS 3 Zrotation Yrotation Xrotation
				JOINT Neck
				{
					OFFSET 0 0 0
					CHANNELS 3 Zrotation Yrotation Xrotation
					JOINT Neck1
					{
						OFFSET 0.04421 1.41010 0.26562
						CHANNELS 3 Zrotation Yrotation Xrotation
						JOINT Head
						{
							OFFSET -0.13407 1.43847 0.06181
							CHANNELS 3 Zrotation Yrotation Xrotation
							End Site
							{
								OFFSET -0.04980 1.45844 -0.00689
							}
						}
					}
				}
				JOINT LeftShoulder
				{
					OFFSET 0 0 0
					CHANNELS 3 Zrotation Yrotation Xrotation
					JOINT LeftArm
					{
						OFFSET 2.18382 1.47753 -0.35694
						CHANNELS 3 Zrotation Yrotation Xrotation
						JOINT LeftForeArm
						{
							OFFSET 5.05460 -0.00000 0.00000
							CHANNELS 3 Zrotation Yrotation Xrotation
							JOINT LeftHand
							{
								OFFSET 3.39013 -0.00000 0.00000
								CHANNELS 3 Zrotation Yrotation Xrotation
								JOINT LeftFingerBase
								{
									OFFSET 0 0 0
									CHANNELS 3 Zrotation Yrotation Xrotation
									JOINT LeftHandIndex1
									{
										OFFSET 0.57242 -0.00000 -0.00000
										CHANNELS 3 Zrotation Yrotation Xrotation
										End Site
										{
											OFFSET 0.46150 -0.00000 -0.00000
										}
									}
								}
								JOINT LThumb
								{
									OFFSET 0 0 0
									CHANNELS 3 Zrotation Yrotation Xrotation
									End Site
									{
										OFFSET 0.46855 -0.00000 0.46855
									}
								}
							}
						}
					}
				}
				JOINT RightShoulder
				{
					OFFSET 0 0 0
					CHANNELS 3 Zrotation Yrotation Xrotation
					JOINT RightArm
					{
						OFFSET -2.06033 1.72839 -0.47437
						CHANNELS 3 Zrotation Yrotation Xrotation
						JOINT RightForeArm
						{
							OFFSET -5.07010 -0.00000 0.00000
							CHANNELS 3 Zrotation Yrotation Xrotation
							JOINT RightHand
							{
								OFFSET -3.14957 -0.00000 -0.00000
								CHANNELS 3 Zrotation Yrotation Xrotation
								JOINT RightFingerBase
								{
									OFFSET 0 0 0
									CHANNELS 3 Zrotation Yrotation Xrotation
									JOINT RightHandIndex1
									{
										OFFSET -0.71819 -0.00000 -0.00000
										CHANNELS 3 Zrotation Yrotation Xrotation
										End Site
										{
											OFFSET -0.57902 -0.00000 -0.00000
										}
									}
								}
								JOINT RThumb
								{
									OFFSET 0 0 0
									CHANNELS 3 Zrotation Yrotation Xrotation
									End Site
									{
										OFFSET -0.58786 -0.00000 0.58786
									}
								}
							}
						}
					}
				}
			}
		}
	}
}
MOTION
Frames: 9
Frame Time: 0.0166666
9.3147 15.1256 -2.7368 -0.0551 -71.9042 -1.0740 0.0000 0.0000 0.0000 -24.1198 -16.9322 -0.5786 3.4732 11.4243 33.7247 1.9716 14.3131 -34.8693 0.2654 -3.3138 -9.1537 0.0000 0.0000 0.0000 29.1619 14.2353 -2.1871 -3.0592 -10.7902 31.5756 -4.3237 -16.1125 -46.8470 -0.0221 0.9604 -2.6398 3.0792 1.1576 3.3431 -0.2053 1.5165 4.4340 -1.9487 0.8238 2.7781 9.4719 4.5410 -8.3830 -6.2183 5.7464 27.5005 -3.2241 2.7195 10.6556 0.0000 0.0000 0.0000 -88.2006 4.3783 21.7041 18.5950 -28.9124 -4.8335 -0.0000 0.0000 -2.4676 18.7299 10.7768 3.6276 -7.1250 0.0000 -0.0000 -7.4214 41.2305 0.6943 0.0000 0.0000 0.0000 86.7896 -4.8236 25.6234 -21.9062 32.8708 -6.5348 0.0000 -0.0000 -9.1059 -16.3945 -3.8833 1.1415 7.1250 -0.0000 -0.0000 8.3895 -33.9365 2.2976
9.3268 15.1127 -2.7779 -0.1879 -71.5232 -0.9375 0.0000 0.0000 0.0000 -23.4645 -16.6963 -2.6816 4.0146 12.1798 36.3710 1.8121 13.6565 -33.4456 0.3320 -3.7032 -10.2432 0.0000 0.0000 0.0000 29.0014 13.0804 -2.9540 -3.0909 -10.8408 31.7448 -4.1323 -15.9715 -46.0088 -0.0540 1.4991 -4.1234 4.0075 0.9206 4.1348 -0.1303 1.2356 4.5466 -2.4031 0.7019 2.4601 9.3471 4.7072 -8.4316 -6.4697 6.0748 27.2624 -3.2475 2.8328 10.6088 -0.0000 -0.0000 0.0000 -88.3500 4.8694 21.9631 19.3289 -29.8253 -5.1934 -0.0000 0.0000 -2.8816 18.8113 10.7541 3.6370 -7.1250 0.0000 -0.0000 -7.3460 41.2144 0.6900 -0.0000 -0.0000 0.0000 85.8652 -5.9344 29.1082 -24.7658 35.9637 -8.1520 0.0000 -0.0000 -7.9993 -15.9458 -3.2577 0.9302 7.1250 -0.0000 -0.0000 8.6796 -33.2766 2.5188
9.3441 15.1066 -2.8257 0.4025 -70.9187 -1.6076 0.0000 0.0000 0.0000 -22.7988 -16.1842 -5.5473 4.8099 13.1665 39.9949 1.4767 12.7622 -30.6802 0.4724 -4.4079 -12.2272 0.0000 0.0000 0.0000 28.6900 11.9899 -3.5148 -3.1077 -10.8674 31.8339 -4.0176 -15.8399 -45.4682 -0.0761 1.7795 -4.8968 4.6189 0.6674 4.9901 -0.0265 0.9320 4.8432 -2.6435 0.5608 2.2825 9.3031 4.8305 -8.4299 -6.9244 6.3823 26.8042 -3.3574 2.9274 10.4784 -0.0000 0.0000 0.0000 -88.6304 4.9997 22.1347 19.9244 -30.5512 -5.4929 -0.0000 0.0000 -3.0690 19.0932 10.9927 3.7763 -7.1250 0.0000 -0.0000 -7.1398 41.4894 0.6218 -0.0000 0.0000 0.0000 84.8521 -6.6025 32.0041 -27.8894 39.0142 -10.0540 0.0000 -0.0000 -8.9130 -15.0925 -1.6586 0.4472 7.1250 -0.0000 -0.0000 9.1835 -31.6136 3.0411
9.3591 15.1148 -2.8808 1.4701 -70.2584 -2.8371 0.0000 0.0000 0.0000 -22.0899 -15.5391 -9.0162 5.8761 14.3072 44.4825 1.0331 11.6276 -26.6433 0.6659 -5.2186 -14.5331 0.0000 0.0000 0.0000 28.3714 11.2472 -3.6052 -3.0635 -10.7972 31.5990 -3.9392 -15.9011 -45.1900 -0.0670 1.6700 -4.5946 4.9382 0.5129 5.8333 0.0496 0.7519 5.2504 -2.7463 0.4768 2.2294 9.4139 4.8708 -8.3098 -7.3358 6.5339 26.3278 -3.4986 2.9743 10.3107 -0.0000 0.0000 0.0000 -88.8128 4.7999 22.4538 20.3189 -31.0247 -5.6948 -0.0000 0.0000 -3.0700 19.2436 11.3453 3.9285 -7.1250 0.0000 -0.0000 -7.0695 41.8720 0.5486 -0.0000 0.0000 0.0000 84.0998 -6.7067 33.8538 -30.7320 41.5126 -11.8918 0.0000 -0.0000 -10.6559 -14.0837 -0.3947 0.0990 7.1250 -0.0000 -0.0000 9.8441 -30.3065 3.5785
9.3664 15.1401 -2.9405 2.4421 -69.6787 -4.0606 0.0000 0.0000 0.0000 -21.1635 -14.7009 -13.0320 7.2200 15.5144 49.7017 0.6353 10.0774 -21.9060 0.7861 -5.6601 -15.8014 0.0000 0.0000 0.0000 28.2004 10.7060 -3.1837 -2.9215 -10.5669 30.8327 -3.8306 -16.1724 -44.9216 -0.0416 1.3158 -3.6181 5.1173 0.4582 6.6636 0.1437 0.6994 5.6787 -2.7539 0.4528 2.2149 9.4808 4.8976 -8.1410 -7.5028 6.6131 26.0278 -3.5567 3.0090 10.1837 0.0000 -0.0000 0.0000 -88.8673 4.5419 22.9623 20.6922 -31.4673 -5.8885 -0.0000 0.0000 -3.1012 18.9988 11.5124 3.9310 -7.1250 0.0000 -0.0000 -7.3165 42.0224 0.5407 0.0000 -0.0000 0.0000 83.5851 -6.3236 34.9480 -32.9440 43.2870 -13.3837 0.0000 -0.0000 -11.9227 -13.4247 0.2214 -0.0528 7.1250 -0.0000 -0.0000 10.2937 -29.6734 3.9048
9.3664 15.1775 -3.0026 3.0157 -69.1892 -4.9871 0.0000 0.0000 0.0000 -20.0051 -13.6680 -17.6255 8.9011 16.7437 55.7476 0.4190 8.3938 -18.0582 0.8119 -5.7500 -16.0609 0.0000 0.0000 0.0000 28.2535 10.1918 -2.3159 -2.6842 -10.1653 29.5137 -3.6749 -16.5877 -44.5558 -0.0209 0.9328 -2.5640 5.2696 0.4453 7.5489 0.3007 0.7055 6.0842 -2.6840 0.4541 2.1522 9.4927 4.9552 -7.9610 -7.5768 6.7237 25.8281 -3.5704 3.0618 10.0899 -0.0000 -0.0000 0.0000 -88.8637 4.4356 23.5002 21.1528 -32.0062 -6.1307 -0.0000 0.0000 -3.1745 18.6698 11.4122 3.8250 -7.1250 0.0000 -0.0000 -7.5892 41.8860 0.5867 -0.0000 -0.0000 0.0000 83.1706 -5.6491 35.6379 -34.6773 44.5803 -14.5864 0.0000 -0.0000 -12.1451 -13.1608 0.1107 -0.0259 7.1250 -0.0000 -0.0000 10.5104 -29.7820 3.9618
9.3633 15.2211 -3.0646 3.1472 -68.7188 -5.5231 0.0000 0.0000 0.0000 -18.7386 -12.5887 -22.8649 11.0027 17.9364 62.7904 0.3933 7.3069 -16.7217 0.8406 -5.8481 -16.3445 0.0000 0.0000 0.0000 28.5322 9.7271 -1.1234 -2.3812 -9.6187 27.7506 -3.4445 -17.4531 -44.1940 -0.0095 0.6297 -1.7303 5.5317 0.4361 8.4957 0.4589 0.7312 6.4435 -2.6766 0.4659 2.0149 9.6240 4.9818 -7.7481 -7.7357 6.7910 25.5187 -3.6387 3.0994 9.9538 0.0000 -0.0000 0.0000 -88.7400 4.4206 23.9580 21.5588 -32.4748 -6.3473 -0.0000 0.0000 -3.1776 18.6731 11.3360 3.8006 -7.1250 0.0000 -0.0000 -7.5722 41.8070 0.6003 0.0000 -0.0000 0.0000 82.8655 -4.8517 36.0834 -36.2140 45.6598 -15.6753 0.0000 -0.0000 -11.2627 -13.0455 -0.6209 0.1439 7.1250 -0.0000 -0.0000 10.6812 -30.5187 3.8369
9.3571 15.2754 -3.1254 3.5997 -68.2065 -6.3376 0.0000 0.0000 0.0000 -17.7241 -11.6195 -28.6668 13.5151 18.9603 70.7179 0.4987 6.9796 -17.6900 0.7836 -5.6513 -15.7761 0.0000 0.0000 0.0000 28.6908 9.2634 0.3033 -2.0340 -8.9365 25.5970 -3.0858 -18.8590 -43.7222 -0.0046 0.4393 -1.2070 5.6878 0.4271 9.4532 0.4971 0.7587 6.7713 -2.7352 0.4766 1.8417 9.7820 4.9450 -7.5251 -7.8484 6.7498 24.9998 -3.7037 3.0967 9.7299 0.0000 -0.0000 0.0000 -88.4349 4.3533 24.3491 21.7865 -32.7349 -6.4700 -0.0000 0.0000 -3.1691 18.8909 11.5249 3.9112 -7.1250 0.0000 -0.0000 -7.4144 42.0248 0.5475 0.0000 -0.0000 0.0000 82.6229 -4.0297 36.4204 -37.7606 46.6858 -16.7912 0.0000 -0.0000 -9.8398 -13.0502 -1.3427 0.3112 7.1250 -0.0000 -0.0000 10.7621 -31.2467 3.6757
9.3431 15.3426 -3.1852 4.6036 -67.6461 -7.6551 0.0000 0.0000 0.0000 -16.9916 -10.7935 -34.8979 16.2911 19.6669 79.0977 0.6448 6.9255 -19.2444 0.6610 -5.1997 -14.4790 0.0000 0.0000 0.0000 28.5782 8.6654 1.9485 -1.6570 -8.1117 23.0538 -2.6341 -20.3570 -42.9998 -0.0011 0.2130 -0.5851 5.6124 0.4618 10.3801 0.3996 0.8281 7.0965 -2.8091 0.5046 1.6858 9.8157 4.8527 -7.4323 -7.7611 6.5943 24.4638 -3.6867 3.0471 9.5037 0.0000 -0.0000 0.0000 -87.9379 4.1052 24.7584 21.6813 -32.6150 -6.4132 -0.0000 0.0000 -3.1001 19.0358 11.1960 3.8327 -7.1250 0.0000 -0.0000 -7.2265 41.6961 0.5924 0.0000 -0.0000 0.0000 82.3341 -3.2653 36.7179 -39.5082 47.7758 -18.0742 0.0000 -0.0000 -8.6829 -13.4032 -1.5390 0.3667 7.1250 -0.0000 -0.0000 10.5073 -31.4530 3.5331
